<?xml version="1.0" encoding="UTF-8"?><svg xmlns="http://www.w3.org/2000/svg" viewBox="0 0 60 60"><defs><style>.cls-1{fill:#000;}.cls-1,.cls-2{stroke-width:0px;}.cls-2{fill:#fff;}</style></defs><g id="Layer_5"><path class="cls-1" d="M11.47,52.23c-1.29,0-2.51-.27-3.62-.9h0c-1.9-1.07-3.87-3.39-4.52-6.17-1.27-5.47,7.41-10.92,15.92-17.62,1.87-1.48,4.84-2.65,6.86-4.07,2.92-2.04,4.72-4.23,7.27-6.32,7.07-5.8,12.84-9.89,18.3-6.42,1.11.7,3.78,2.64,4.65,5.35,2.09,6.48-11.55,16.54-19.27,22.36-.97.73-7.71,4.86-8.9,5.72-5.24,3.79-11.21,8.07-16.69,8.07ZM47.74,10.55c-3.95,0-8.31,3.58-13.52,7.85-2.56,2.1-5.22,4.28-8.17,6.34-2.03,1.42-4.09,2.78-6.09,4.1-8.7,5.76-16.21,10.74-15.63,16.21.34,3.24,2.53,4.78,2.91,4.99l1.4.78c5.25,2.97,13.53-3.6,19.79-8.13,1.19-.87,2.31-1.68,3.33-2.36,23.88-16.22,24.64-21.29,23.64-23.95-.9-2.43-3.12-4.66-3.92-5.16-1.11-.71-2.57-.67-3.74-.67Z"/><path class="cls-1" d="M35.38,38.92c-.15,0-.3-.07-.4-.2l-5.09-6.11-5-7.36c-.17-.22-.12-.53.1-.7.22-.16.63.55.8.77l6.81,9.33,3.18,3.47c.17.22.12.53-.1.7-.09.07-.2.1-.3.1Z"/></g><g id="Layer_6"><path class="cls-1" d="M18.38,44.56c-.28,0-.56-.02-.85-.06-1.49-.23-2.81-1.02-3.7-2.23-.89-1.22-1.26-2.7-1.04-4.2.47-3.08,3.35-5.2,6.43-4.74,3.08.47,5.2,3.35,4.74,6.43h0c-.42,2.79-2.84,4.8-5.58,4.8ZM18.38,34.19c-2.3,0-4.65,1.75-5,4.09-.19,1.25.45,2.42,1.2,3.44.75,1.02,2.21,2.04,3.46,2.23,2.58.38,4.63-1.75,5.02-4.32s-.84-5.04-3.41-5.44c-.24-.04-1.03,0-1.26,0ZM23.51,39.69h.01-.01Z"/><path class="cls-1" d="M18.66,36.6c0-.37-1.51-1.46-1.98-.65s-.82,1.63,0,1.72,1.42-.3,1.55-.43.43-.28.43-.65Z"/><circle class="cls-2" cx="16.99" cy="37.15" r=".21"/><circle class="cls-2" cx="17.21" cy="36.45" r=".24"/><circle class="cls-2" cx="17.99" cy="36.77" r=".22"/><path class="cls-1" d="M21.69,38.85c.29-.71-1.51-1.44-1.98-.62s-.95,1.52,0,1.69c.81.15,1.4-.19,1.53-.32s.31-.42.45-.75Z"/><circle class="cls-2" cx="20.02" cy="39.39" r=".21"/><circle class="cls-2" cx="20.24" cy="38.69" r=".24"/><circle class="cls-2" cx="21.02" cy="39.02" r=".22"/><circle class="cls-2" cx="20.79" cy="38.42" r=".24"/><path class="cls-1" d="M17.08,42.06c.85-.12,1.17-1.68.26-1.92s-1.71-.52-1.64.44c.06.82.55,1.3.7,1.39s.31.15.67.09Z"/><circle class="cls-2" cx="16.25" cy="40.6" r=".21"/><circle class="cls-2" cx="17.19" cy="40.6" r=".24"/><circle class="cls-2" cx="16.81" cy="41.6" r=".22"/><circle class="cls-2" cx="17.43" cy="41.23" r=".24"/><circle class="cls-2" cx="16.68" cy="41.02" r=".21"/><path class="cls-1" d="M9.73,43.89c-.09,0-.18,0-.27-.02-.48-.07-.9-.34-1.18-.74-.29-.4-.4-.9-.33-1.39.15-1.02,1.07-1.72,2.06-1.57.98.16,1.66,1.11,1.51,2.13h0c-.14.93-.91,1.59-1.78,1.59ZM9.73,40.45c-.73,0-1.49.58-1.6,1.36-.06.41.14.8.38,1.14.24.34.71.68,1.11.74.82.13,1.48-.58,1.6-1.43s-.27-1.67-1.09-1.8c-.08-.01-.33,0-.4,0ZM11.37,42.28h0,0Z"/><path class="cls-1" d="M11.37,50.23c-.15,0-.31,0-.47-.03-.82-.1-1.54-.43-2.03-.95-.49-.52-.69-1.15-.57-1.79.26-1.31,1.84-2.22,3.53-2.02,1.69.2,2.86,1.43,2.6,2.74h0c-.23,1.19-1.56,2.05-3.06,2.05ZM11.37,45.81c-1.26,0-2.55.75-2.74,1.74-.1.53.25,1.03.66,1.47.41.43,1.21.87,1.9.95,1.41.16,2.54-.74,2.75-1.84s-.46-2.15-1.87-2.32c-.13-.02-.56,0-.69,0ZM14.19,48.15h0,0Z"/><path class="cls-1" d="M22.06,30.38c-.36,1.12,2.49,2.04,3.12.72s1.28-2.45-.2-2.61c-1.26-.14-2.13.46-2.32.67s-.43.68-.61,1.22Z"/><circle class="cls-2" cx="24.57" cy="29.34" r=".32"/><circle class="cls-2" cx="24.31" cy="30.45" r=".37"/><circle class="cls-2" cx="23.07" cy="30.04" r=".34"/><circle class="cls-2" cx="23.49" cy="30.93" r=".37"/><path class="cls-1" d="M9.07,41.92s.86-.13.93.1.25.95.13.96-.9-.05-.99-.16-.07-.9-.07-.9Z"/><path class="cls-1" d="M46.13,14.56c.28.02.56.06.84.12,1.47.33,2.73,1.21,3.53,2.49.81,1.28,1.07,2.79.74,4.26-.68,3.04-3.7,4.95-6.75,4.27-3.04-.68-4.96-3.71-4.27-6.75h0c.62-2.76,3.17-4.59,5.9-4.4ZM45.41,24.9c2.29.16,4.76-1.42,5.27-3.73.28-1.23-.28-2.45-.95-3.51-.68-1.07-2.06-2.19-3.3-2.47-2.54-.56-4.74,1.42-5.31,3.96s.48,5.09,3.02,5.66c.24.05,1.03.07,1.26.09ZM40.68,19.05h-.01s.01,0,.01,0Z"/><path class="cls-1" d="M45.17,22.09c-.03.39,1.5,1.68,2.07.84s1-1.68.13-1.84-1.54.22-1.69.34-.48.27-.51.66Z"/><circle class="cls-2" cx="47" cy="21.63" r=".22"/><circle class="cls-2" cx="46.71" cy="22.36" r=".25"/><circle class="cls-2" cx="45.91" cy="21.96" r=".24"/><path class="cls-1" d="M42.05,20.06c-.36.73,1.5,1.65,2.07.81s1.13-1.55.12-1.81c-.85-.22-1.51.1-1.66.23s-.37.42-.54.77Z"/><circle class="cls-2" cx="43.88" cy="19.6" r=".22"/><circle class="cls-2" cx="43.59" cy="20.33" r=".25"/><circle class="cls-2" cx="42.78" cy="19.93" r=".24"/><circle class="cls-2" cx="42.98" cy="20.59" r=".25"/><path class="cls-1" d="M47.63,17.01c-.92.07-1.37,1.71-.42,2.04s1.79.69,1.78-.35c0-.88-.49-1.43-.65-1.54s-.32-.18-.71-.15Z"/><circle class="cls-2" cx="48.4" cy="18.63" r=".22"/><circle class="cls-2" cx="47.4" cy="18.56" r=".25"/><circle class="cls-2" cx="47.88" cy="17.52" r=".24"/><circle class="cls-2" cx="47.19" cy="17.87" r=".25"/><circle class="cls-2" cx="47.97" cy="18.15" r=".22"/><path class="cls-1" d="M36.49,20.82c.08,0,.16.02.24.04.42.1.78.36,1.01.74.23.38.31.83.21,1.27-.2.91-1.07,1.48-1.94,1.28-.87-.2-1.42-1.1-1.22-2.01h0c.18-.82.91-1.37,1.7-1.32ZM36.27,23.91c.66.05,1.37-.43,1.52-1.12.08-.37-.08-.73-.27-1.05-.19-.32-.59-.65-.95-.73-.73-.17-1.36.43-1.53,1.19s.13,1.52.87,1.69c.07.02.29.02.36.03ZM34.92,22.17h0s0,0,0,0Z"/><path class="cls-1" d="M34.77,26.63c.15.01.31.03.46.06.81.15,1.51.54,1.96,1.09.45.55.61,1.2.44,1.82-.35,1.29-1.99,2.08-3.66,1.77-1.67-.32-2.75-1.63-2.4-2.92h0c.32-1.17,1.7-1.93,3.2-1.83ZM34.47,31.04c1.26.09,2.6-.57,2.86-1.55.14-.52-.17-1.05-.55-1.51-.38-.46-1.15-.95-1.83-1.08-1.4-.26-2.59.56-2.88,1.64s.31,2.18,1.71,2.44c.13.02.56.04.69.05ZM31.82,28.51h0s0,0,0,0Z"/><path class="cls-1" d="M43.52,28.57c.44-1.09-2.33-2.19-3.05-.93-.72,1.26-1.44,2.34.02,2.6,1.24.22,2.14-.31,2.34-.51s.48-.64.69-1.16Z"/><circle class="cls-2" cx="40.95" cy="29.42" r=".32"/><circle class="cls-2" cx="41.29" cy="28.35" r=".36"/><circle class="cls-2" cx="42.48" cy="28.84" r=".34"/><circle class="cls-2" cx="42.14" cy="27.92" r=".36"/><path class="cls-1" d="M36.96,22.63s-.78.06-.83-.14-.17-.86-.05-.87.8.1.88.21,0,.81,0,.81Z"/></g></svg>