<?xml version="1.0" encoding="UTF-8"?><svg xmlns="http://www.w3.org/2000/svg" viewBox="0 0 60 60"><defs><style>.c{fill:none;stroke:#000;stroke-linecap:round;stroke-miterlimit:10;}</style></defs><g id="a"/><g id="b"><g><path class="c" d="M31.67,38.15c-1.11,.83-2.42,1.24-3.73,1.24-.68,0-1.36-.11-2-.33-.88-.29-1.72-.79-2.42-1.5-2.18-2.18-2.41-5.57-.7-8.01,.21-.29,.44-.57,.7-.83l3.26-3.26,4.14-4.15,4.1-4.1,3.85-3.85,.72-.72c.8-.79,1.75-1.33,2.77-1.61,1.13-.31,2.33-.29,3.46,.04,.96,.29,1.86,.8,2.62,1.56,2.44,2.44,2.44,6.41,0,8.84l-2.9,2.9-3.46,3.46-3.21,3.21-3.57,3.57-2.94,2.94c-.21,.21-.45,.41-.69,.59Z"/><path class="c" d="M23.51,37.56c-2.38,5.57-5.46,2.62-8.98,6.3-2.24,2.34-.22,5.81-2.68,8.04-2.36,2.14-5.91,.39-8.04,5.36"/><path class="c" d="M48.43,12.64s1.85-.51,2.72-1.83,.33-2.68,.89-3.57,1.79-.89,1.79-.89"/><path class="c" d="M45.82,11.08s.44-1.16,.88-2.05,.47-1.46,0-2.68,.89-1.79,.89-1.79"/><path class="c" d="M49.92,15.03s2.13-1.54,3.02-1.54,1.75,.89,2.68,.89,1.79-.89,1.79-.89"/><path class="c" d="M42.36,11.03s.02-2.01-.13-2.9-.89-1.02-1.79-1.79,0-2.68,0-2.68"/><path class="c" d="M25.93,39.06s-.33,2.2-.64,3.08-2.72,1.23-3.16,1.87-.45,1.67-.45,1.67"/><path class="c" d="M31.67,38.15s1.63,2.31,1.63,3.03-1.79,1.83-1.79,2.68v1.79"/><path class="c" d="M35.29,34.62s1.57,1.2,1.57,2.09v2.68"/><path class="c" d="M38.87,31.05s2.1,1.35,2.47,2.09-.07,.92,0,1.79,.89,1.79,.89,1.79"/><path class="c" d="M42.07,27.84s3.24,.83,3.72,1.72,0,2.23,.89,2.68l1.79,.89"/><path class="c" d="M50.26,17.21s2.41-.15,3.57,.74,1.79,1.79,1.79,1.79"/><path class="c" d="M48.43,21.48s3.04,.07,3.62,.94,1.14,2.14,1.79,2.68,1.79,0,1.79,0"/><path class="c" d="M45.53,24.39s2.43,2.11,2.95,2.5,1.79,0,1.79,0"/><path class="c" d="M38.87,13.36s-.77-1.52-1.11-2.55-1.79-1.18-1.79-1.79,0-1.79,0-1.79"/><path class="c" d="M35.02,17.21s-1.72-3.07-2.62-3.72-3.02-.89-3.57-1.79,0-2.68,0-2.68"/><path class="c" d="M30.92,21.31s-1.2-2.91-2.09-3.36l-1.79-.89"/><path class="c" d="M26.77,25.46s-1.86-3.04-2.41-3.93-2.68-.62-3.57-.89-.89-1.79-.89-1.79"/><path class="c" d="M22.81,29.55s-1.68-2.27-2.92-2.66-1.99,0-2.68,0-.89-.89-.89-.89"/><path class="c" d="M21.86,34.62s-2.05-.14-2.86,.3-1.72,2.14-2.68,2.68-1.79,0-1.79,0"/></g></g></svg>