<svg width="32" height="32" viewBox="0 0 32 32" fill="none" xmlns="http://www.w3.org/2000/svg">
<g clip-path="url(#clip0_2_330)">
<path fill-rule="evenodd" clip-rule="evenodd" d="M15.9844 9.98512L20.47 15.8242L25.7917 15.8234V19.0516H24.1776L22.5635 31.9653H3.19415L1.58004 19.0516H-0.0340729V15.8234H5.28685L9.77328 9.98512C9.63701 9.6569 9.61287 9.29289 9.70461 8.94955C9.79634 8.60621 9.99882 8.30275 10.2806 8.08624C10.5624 7.86972 10.9078 7.75227 11.2632 7.75209C11.6186 7.75191 11.9641 7.86903 12.2461 8.08526C12.5282 8.30149 12.7309 8.60476 12.823 8.948C12.9151 9.29125 12.8913 9.65528 12.7554 9.98364C12.6194 10.312 12.3789 10.5863 12.0712 10.764C11.7634 10.9417 11.4056 11.0129 11.0533 10.9665L7.32305 15.8234H18.4346L14.7044 10.9665C14.3521 11.0129 13.9943 10.9417 13.6865 10.764C13.3787 10.5863 13.1382 10.312 13.0023 9.98364C12.8663 9.65528 12.8426 9.29125 12.9346 8.948C13.0267 8.60476 13.2295 8.30149 13.5115 8.08526C13.7936 7.86903 14.1391 7.75191 14.4944 7.75209C14.8498 7.75227 15.1952 7.86972 15.477 8.08624C15.7588 8.30275 15.9613 8.60621 16.0531 8.94955C16.1448 9.29289 16.1207 9.6569 15.9844 9.98512ZM4.80827 28.7363H8.03649V25.5088H4.80827V28.7363ZM4.80827 22.2798H8.03649V19.0516H4.80827V22.2798ZM11.2647 28.7363H14.4929V25.5088H11.2647V28.7363ZM11.2647 22.2798H14.4929V19.0516H11.2647V22.2798ZM17.7212 28.7363H20.9494V25.5088H17.7212V28.7363ZM17.7212 22.2798H20.9494V19.0516H17.7212V22.2798Z" fill="white"/>
<path d="M30.1535 4.84544C30.6591 4.84544 31.0744 4.98363 31.3994 5.26C31.7605 5.50567 31.941 5.82811 31.941 6.22731C31.941 6.62652 31.7605 6.96431 31.3994 7.24068C31.0744 7.48635 30.6591 7.60918 30.1535 7.60918H21.7576C21.2521 7.60918 20.8368 7.48635 20.5118 7.24068C20.1868 6.96431 20.0243 6.62652 20.0243 6.22731C20.0243 5.7974 20.1868 5.45961 20.5118 5.21394C20.8368 4.96828 21.2521 4.84544 21.7576 4.84544H30.1535Z" fill="white"/>
</g>
<defs>
<clipPath id="clip0_2_330">
<rect width="32" height="32" fill="white"/>
</clipPath>
</defs>
</svg>
