<svg width="32" height="32" viewBox="0 0 32 32" fill="none" xmlns="http://www.w3.org/2000/svg">
<g clip-path="url(#clip0_2_325)">
<path fill-rule="evenodd" clip-rule="evenodd" d="M15.9844 9.98512L20.47 15.8242L25.7917 15.8234V19.0516H24.1776L22.5635 31.9653H3.19415L1.58004 19.0516H-0.0340729V15.8234H5.28685L9.77328 9.98512C9.63701 9.6569 9.61287 9.29289 9.70461 8.94955C9.79634 8.60621 9.99882 8.30275 10.2806 8.08624C10.5624 7.86972 10.9078 7.75227 11.2632 7.75209C11.6186 7.75192 11.9641 7.86903 12.2461 8.08526C12.5282 8.30149 12.7309 8.60476 12.823 8.948C12.9151 9.29125 12.8913 9.65529 12.7554 9.98364C12.6194 10.312 12.3789 10.5863 12.0712 10.764C11.7634 10.9417 11.4056 11.0129 11.0533 10.9665L7.32305 15.8234H18.4346L14.7044 10.9665C14.3521 11.0129 13.9943 10.9417 13.6865 10.764C13.3787 10.5863 13.1382 10.312 13.0023 9.98364C12.8663 9.65529 12.8426 9.29125 12.9346 8.948C13.0267 8.60476 13.2295 8.30149 13.5115 8.08526C13.7936 7.86903 14.1391 7.75192 14.4944 7.75209C14.8498 7.75227 15.1952 7.86972 15.477 8.08624C15.7588 8.30275 15.9613 8.60621 16.0531 8.94955C16.1448 9.29289 16.1207 9.6569 15.9844 9.98512ZM4.80827 28.7363H8.03649V25.5089H4.80827V28.7363ZM4.80827 22.2798H8.03649V19.0516H4.80827V22.2798ZM11.2647 28.7363H14.4929V25.5089H11.2647V28.7363ZM11.2647 22.2798H14.4929V19.0516H11.2647V22.2798ZM17.7212 28.7363H20.9494V25.5089H17.7212V28.7363ZM17.7212 22.2798H20.9494V19.0516H17.7212V22.2798Z" fill="white"/>
<path d="M20.4413 8.14224C19.9798 8.14224 19.5904 8.01245 19.2731 7.75286C18.9847 7.46443 18.8405 7.10389 18.8405 6.67125C18.8405 6.20976 18.9847 5.8348 19.2731 5.54637C19.5904 5.25794 19.9798 5.11372 20.4413 5.11372H24.0322V1.69582C24.0322 1.20549 24.1765 0.816113 24.4649 0.527683C24.7533 0.210409 25.1283 0.0517731 25.5898 0.0517731C26.0224 0.0517731 26.3685 0.210409 26.6281 0.527683C26.9165 0.816113 27.0608 1.20549 27.0608 1.69582V5.11372H30.1758C30.6661 5.11372 31.0555 5.25794 31.344 5.54637C31.6612 5.8348 31.8199 6.20976 31.8199 6.67125C31.8199 7.10389 31.6612 7.46443 31.344 7.75286C31.0555 8.01245 30.6661 8.14224 30.1758 8.14224H27.0608V11.4304C27.0608 11.8918 26.9165 12.2812 26.6281 12.5985C26.3685 12.8869 26.0224 13.0311 25.5898 13.0311C25.1283 13.0311 24.7533 12.8869 24.4649 12.5985C24.1765 12.2812 24.0322 11.8918 24.0322 11.4304V8.14224H20.4413Z" fill="white"/>
</g>
<defs>
<clipPath id="clip0_2_325">
<rect width="32" height="32" fill="white"/>
</clipPath>
</defs>
</svg>
